<?xml version="1.0" encoding="UTF-8" standalone="no"?>
<!-- Created with Inkscape (http://www.inkscape.org/) -->

<svg
   width="457.25"
   height="457.25"
   viewBox="0 0 457.25 457.25"
   version="1.1"
   id="svg1"
   inkscape:version="1.4.2 (2aeb623e1d, 2025-05-12)"
   sodipodi:docname="Clock.svg"
   xmlns:inkscape="http://www.inkscape.org/namespaces/inkscape"
   xmlns:sodipodi="http://sodipodi.sourceforge.net/DTD/sodipodi-0.dtd"
   xmlns="http://www.w3.org/2000/svg"
   xmlns:svg="http://www.w3.org/2000/svg">
  <sodipodi:namedview
     id="namedview1"
     pagecolor="#ffffff"
     bordercolor="#000000"
     borderopacity="0.25"
     inkscape:showpageshadow="2"
     inkscape:pageopacity="0.0"
     inkscape:pagecheckerboard="0"
     inkscape:deskcolor="#d1d1d1"
     inkscape:document-units="px"
     showguides="false"
     inkscape:zoom="0.98632812"
     inkscape:cx="307.70693"
     inkscape:cy="289.96436"
     inkscape:window-width="1366"
     inkscape:window-height="714"
     inkscape:window-x="0"
     inkscape:window-y="0"
     inkscape:window-maximized="1"
     inkscape:current-layer="layer1" />
  <defs
     id="defs1" />
  <g
     inkscape:label="Layer 1"
     inkscape:groupmode="layer"
     id="layer1"
     transform="translate(-27.375,-27.375)">
    <path
       d="m 149.44141,53.726562 10.0957,11.900391 a 213.41783,213.41783 0 0 1 83.45703,-22.648437 l 2.69336,-15.371094 a 228.62575,228.62575 0 0 0 -96.24609,26.11914 z"
       style="stroke-width:1.4;stroke-dashoffset:7.42"
       id="path28" />
    <path
       d="m 62.580078,134.10547 14.693359,5.25781 A 213.41783,213.41783 0 0 1 138.22461,78.021484 L 132.87305,63.363281 A 228.62575,228.62575 0 0 0 62.580078,134.10547 Z"
       style="stroke-width:1.4;stroke-dashoffset:7.42"
       id="path26" />
    <path
       d="m 27.546875,247.14648 15.353516,-2.79296 A 213.41783,213.41783 0 0 1 65.015625,160.75391 L 53.050781,150.73437 a 228.62575,228.62575 0 0 0 -25.503906,96.41211 z"
       style="stroke-width:1.4;stroke-dashoffset:7.42"
       id="path24" />
    <path
       d="m 53.726562,362.55859 11.900391,-10.0957 A 213.41783,213.41783 0 0 1 42.978516,269.00586 L 27.607422,266.3125 a 228.62575,228.62575 0 0 0 26.11914,96.24609 z"
       style="stroke-width:1.4;stroke-dashoffset:7.42"
       id="path22" />
    <path
       d="m 134.10547,449.41992 5.25781,-14.69336 A 213.41783,213.41783 0 0 1 78.021484,373.77539 l -14.658203,5.35156 a 228.62575,228.62575 0 0 0 70.742189,70.29297 z"
       style="stroke-width:1.4;stroke-dashoffset:7.42"
       id="path20" />
    <path
       d="m 247.14648,484.45312 -2.79296,-15.35351 a 213.41783,213.41783 0 0 1 -83.59961,-22.11524 l -10.01954,11.96485 a 228.62575,228.62575 0 0 0 96.41211,25.5039 z"
       style="stroke-width:1.4;stroke-dashoffset:7.42"
       id="path17" />
    <path
       d="m 362.55859,458.27344 -10.0957,-11.90039 a 213.41783,213.41783 0 0 1 -83.45703,22.64843 l -2.69336,15.3711 a 228.62575,228.62575 0 0 0 96.24609,-26.11914 z"
       style="stroke-width:1.4;stroke-dashoffset:7.42"
       id="path15" />
    <path
       d="m 449.41992,377.89453 -14.69336,-5.25781 a 213.41783,213.41783 0 0 1 -60.95117,61.3418 l 5.35156,14.6582 a 228.62575,228.62575 0 0 0 70.29297,-70.74219 z"
       style="stroke-width:1.4;stroke-dashoffset:7.42"
       id="path14" />
    <path
       d="m 484.45312,264.85352 -15.35351,2.79296 a 213.41783,213.41783 0 0 1 -22.11524,83.59961 l 11.96485,10.01953 a 228.62575,228.62575 0 0 0 25.5039,-96.4121 z"
       style="stroke-width:1.4;stroke-dashoffset:7.42"
       id="path12" />
    <path
       d="m 458.27344,149.44141 -11.90039,10.0957 a 213.41783,213.41783 0 0 1 22.64843,83.45703 l 15.3711,2.69336 a 228.62575,228.62575 0 0 0 -26.11914,-96.24609 z"
       style="stroke-width:1.4;stroke-dashoffset:7.42"
       id="path10" />
    <path
       d="m 377.89453,62.580078 -5.25781,14.693359 a 213.41783,213.41783 0 0 1 61.3418,60.951173 l 14.6582,-5.35156 A 228.62575,228.62575 0 0 0 377.89453,62.580078 Z"
       style="stroke-width:1.4;stroke-dashoffset:7.42"
       id="path8" />
    <path
       d="m 264.85352,27.546875 2.79296,15.353516 a 213.41783,213.41783 0 0 1 83.59961,22.115234 l 10.01953,-11.964844 a 228.62575,228.62575 0 0 0 -96.4121,-25.503906 z"
       style="stroke-width:1.4;stroke-dashoffset:7.42"
       id="path6" />
    <path
       d="M 264.85352,27.546875 A 228.62575,228.62575 0 0 0 256,27.375 228.62575,228.62575 0 0 0 245.6875,27.607422 l -2.69336,15.371094 A 213.41783,213.41783 0 0 1 256,42.582031 a 213.41783,213.41783 0 0 1 11.64648,0.31836 z"
       style="stroke-width:1.4;stroke-dashoffset:7.42"
       id="path29" />
    <path
       d="m 132.87305,63.363281 5.35156,14.658203 A 213.41783,213.41783 0 0 1 159.53516,65.626953 L 149.44141,53.726562 a 228.62575,228.62575 0 0 0 -16.56836,9.636719 z"
       style="stroke-width:1.4;stroke-dashoffset:7.42"
       id="path27" />
    <path
       d="m 53.050781,150.73437 11.964844,10.01954 a 213.41783,213.41783 0 0 1 12.257812,-21.39063 l -14.693359,-5.25781 a 228.62575,228.62575 0 0 0 -9.529297,16.6289 z"
       style="stroke-width:1.4;stroke-dashoffset:7.42"
       id="path25" />
    <path
       d="m 27.607422,266.3125 15.371094,2.69336 A 213.41783,213.41783 0 0 1 42.582031,256 a 213.41783,213.41783 0 0 1 0.31836,-11.64648 l -15.353516,2.79296 A 228.62575,228.62575 0 0 0 27.375,256 a 228.62575,228.62575 0 0 0 0.232422,10.3125 z"
       style="stroke-width:1.4;stroke-dashoffset:7.42"
       id="path23" />
    <path
       d="m 63.363281,379.12695 14.658203,-5.35156 A 213.41783,213.41783 0 0 1 65.626953,352.46484 l -11.900391,10.09375 a 228.62575,228.62575 0 0 0 9.636719,16.56836 z"
       style="stroke-width:1.4;stroke-dashoffset:7.42"
       id="path21" />
    <path
       d="m 150.73437,458.94922 10.01954,-11.96485 a 213.41783,213.41783 0 0 1 -21.39063,-12.25781 l -5.25781,14.69336 a 228.62575,228.62575 0 0 0 16.6289,9.5293 z"
       style="stroke-width:1.4;stroke-dashoffset:7.42"
       id="path19" />
    <path
       d="m 266.3125,484.39258 2.69336,-15.3711 A 213.41783,213.41783 0 0 1 256,469.41797 213.41783,213.41783 0 0 1 244.35352,469.09961 l 2.79296,15.35351 A 228.62575,228.62575 0 0 0 256,484.625 a 228.62575,228.62575 0 0 0 10.3125,-0.23242 z"
       style="stroke-width:1.4;stroke-dashoffset:7.42"
       id="path18" />
    <path
       d="m 379.12695,448.63672 -5.35156,-14.6582 a 213.41783,213.41783 0 0 1 -21.31055,12.39453 l 10.09375,11.90039 a 228.62575,228.62575 0 0 0 16.56836,-9.63672 z"
       style="stroke-width:1.4;stroke-dashoffset:7.42"
       id="path16" />
    <path
       d="m 458.94922,361.26562 -11.96485,-10.01953 a 213.41783,213.41783 0 0 1 -12.25781,21.39063 l 14.69336,5.25781 a 228.62575,228.62575 0 0 0 9.5293,-16.62891 z"
       style="stroke-width:1.4;stroke-dashoffset:7.42"
       id="path13" />
    <path
       d="m 484.39258,245.6875 -15.3711,-2.69336 A 213.41783,213.41783 0 0 1 469.41797,256 a 213.41783,213.41783 0 0 1 -0.31836,11.64648 l 15.35351,-2.79296 A 228.62575,228.62575 0 0 0 484.625,256 228.62575,228.62575 0 0 0 484.39258,245.6875 Z"
       style="stroke-width:1.4;stroke-dashoffset:7.42"
       id="path11" />
    <path
       d="m 448.63672,132.87305 -14.6582,5.35156 a 213.41783,213.41783 0 0 1 12.39453,21.31055 l 11.90039,-10.09375 a 228.62575,228.62575 0 0 0 -9.63672,-16.56836 z"
       style="stroke-width:1.4;stroke-dashoffset:7.42"
       id="path9" />
    <path
       d="m 351.24609,65.015625 a 213.41783,213.41783 0 0 1 21.39063,12.257812 l 5.25781,-14.693359 a 228.62575,228.62575 0 0 0 -16.62891,-9.529297 z"
       style="stroke-width:1.4;stroke-dashoffset:7.42"
       id="path7" />
    <path
       d="M 85.878906,178.22461 A 187.05742,187.05742 0 0 1 102.89453,148.5332 l -25.621093,-9.16992 a 213.41783,213.41783 0 0 0 -12.257812,21.39063 z"
       style="stroke-width:1.4;stroke-dashoffset:7.42"
       id="path42" />
    <path
       d="M 69.783203,273.70508 A 187.05742,187.05742 0 0 1 68.943359,256 187.05742,187.05742 0 0 1 69.673828,239.48437 l -26.773437,4.86915 A 213.41783,213.41783 0 0 0 42.582031,256 a 213.41783,213.41783 0 0 0 0.396485,13.00586 z"
       style="stroke-width:1.4;stroke-dashoffset:7.42"
       id="path41" />
    <path
       d="M 103.58398,364.44141 A 187.05742,187.05742 0 0 1 86.378906,334.86133 l -20.751953,17.60351 a 213.41783,213.41783 0 0 0 12.394531,21.31055 z"
       style="stroke-width:1.4;stroke-dashoffset:7.42"
       id="path40" />
    <path
       d="M 178.22461,426.12109 A 187.05742,187.05742 0 0 1 148.5332,409.10547 l -9.16992,25.62109 a 213.41783,213.41783 0 0 0 21.39063,12.25781 z"
       style="stroke-width:1.4;stroke-dashoffset:7.42"
       id="path39" />
    <path
       d="M 273.70508,442.2168 A 187.05742,187.05742 0 0 1 256,443.05664 187.05742,187.05742 0 0 1 239.48437,442.32617 l 4.86915,26.77344 A 213.41783,213.41783 0 0 0 256,469.41797 a 213.41783,213.41783 0 0 0 13.00586,-0.39649 z"
       style="stroke-width:1.4;stroke-dashoffset:7.42"
       id="path38" />
    <path
       d="m 364.44141,408.41602 a 187.05742,187.05742 0 0 1 -29.58008,17.20507 l 17.60351,20.75196 a 213.41783,213.41783 0 0 0 21.31055,-12.39453 z"
       style="stroke-width:1.4;stroke-dashoffset:7.42"
       id="path37" />
    <path
       d="m 426.12109,333.77539 a 187.05742,187.05742 0 0 1 -17.01562,29.69141 l 25.62109,9.16992 a 213.41783,213.41783 0 0 0 12.25781,-21.39063 z"
       style="stroke-width:1.4;stroke-dashoffset:7.42"
       id="path36" />
    <path
       d="M 442.2168,238.29492 A 187.05742,187.05742 0 0 1 443.05664,256 a 187.05742,187.05742 0 0 1 -0.73047,16.51562 l 26.77344,-4.86914 A 213.41783,213.41783 0 0 0 469.41797,256 213.41783,213.41783 0 0 0 469.02148,242.99414 Z"
       style="stroke-width:1.4;stroke-dashoffset:7.42"
       id="path35" />
    <path
       d="m 408.41602,147.55859 a 187.05742,187.05742 0 0 1 17.20507,29.58008 l 20.75196,-17.60351 a 213.41783,213.41783 0 0 0 -12.39453,-21.31055 z"
       style="stroke-width:1.4;stroke-dashoffset:7.42"
       id="path34" />
    <path
       d="m 333.77539,85.878906 a 187.05742,187.05742 0 0 1 29.69141,17.015624 l 9.16992,-25.621093 A 213.41783,213.41783 0 0 0 351.24609,65.015625 Z"
       style="stroke-width:1.4;stroke-dashoffset:7.42"
       id="path33" />
    <path
       d="m 256,42.582031 a 213.41783,213.41783 0 0 0 -13.00586,0.396485 l -4.69922,26.804687 A 187.05742,187.05742 0 0 1 256,68.943359 187.05742,187.05742 0 0 1 272.51562,69.673828 L 267.64648,42.900391 A 213.41783,213.41783 0 0 0 256,42.582031 Z"
       style="stroke-width:1.4;stroke-dashoffset:7.42"
       id="path32" />
    <path
       d="M 147.55859,103.58398 A 187.05742,187.05742 0 0 1 177.13867,86.378906 L 159.53516,65.626953 a 213.41783,213.41783 0 0 0 -21.31055,12.394531 z"
       style="stroke-width:1.4;stroke-dashoffset:7.42"
       id="path31" />
  </g>
</svg>
