<?xml version="1.0" encoding="UTF-8" standalone="no"?>
<!-- Created with Inkscape (http://www.inkscape.org/) -->

<svg
   width="48"
   height="48"
   viewBox="0 0 48 48"
   version="1.1"
   id="svg1"
   xml:space="preserve"
   sodipodi:docname="RunAJar.svg"
   inkscape:version="1.4.2 (2aeb623e1d, 2025-05-12)"
   xmlns:inkscape="http://www.inkscape.org/namespaces/inkscape"
   xmlns:sodipodi="http://sodipodi.sourceforge.net/DTD/sodipodi-0.dtd"
   xmlns:xlink="http://www.w3.org/1999/xlink"
   xmlns="http://www.w3.org/2000/svg"
   xmlns:svg="http://www.w3.org/2000/svg"><sodipodi:namedview
     id="namedview1"
     pagecolor="#ffffff"
     bordercolor="#000000"
     borderopacity="0.25"
     inkscape:showpageshadow="2"
     inkscape:pageopacity="0.0"
     inkscape:pagecheckerboard="0"
     inkscape:deskcolor="#d1d1d1"
     inkscape:document-units="px"
     inkscape:zoom="5.3333333"
     inkscape:cx="-5.8125"
     inkscape:cy="17.8125"
     inkscape:window-width="1366"
     inkscape:window-height="714"
     inkscape:window-x="0"
     inkscape:window-y="0"
     inkscape:window-maximized="1"
     inkscape:current-layer="svg1" /><defs
     id="defs1"><linearGradient
       id="linearGradient7"
       inkscape:collect="always"><stop
         style="stop-color:#d66800;stop-opacity:1;"
         offset="0"
         id="stop7" /><stop
         style="stop-color:#d6d6d6;stop-opacity:1;"
         offset="0.73265982"
         id="stop8" /></linearGradient><linearGradient
       inkscape:collect="always"
       xlink:href="#linearGradient7"
       id="linearGradient8"
       x1="12.511719"
       y1="26.052395"
       x2="36.959877"
       y2="26.052395"
       gradientUnits="userSpaceOnUse"
       gradientTransform="matrix(1.0461402,0,0,1.0461402,-1.1413149,-1.2020633)" /><linearGradient
       id="linearGradient358"
       inkscape:collect="always"><stop
         style="stop-color:#ffffff;stop-opacity:1;"
         offset="0.18049236"
         id="stop357" /><stop
         style="stop-color:#1c1c1c;stop-opacity:1;"
         offset="0.77420509"
         id="stop358" /></linearGradient><linearGradient
       id="linearGradient355"
       inkscape:collect="always"><stop
         style="stop-color:#ffffff;stop-opacity:1;"
         offset="0"
         id="stop354" /><stop
         style="stop-color:#1c1c1c;stop-opacity:1;"
         offset="0.49267605"
         id="stop355" /></linearGradient><linearGradient
       id="linearGradient5"
       inkscape:collect="always"><stop
         style="stop-color:#ffffff;stop-opacity:1;"
         offset="0"
         id="stop5" /><stop
         style="stop-color:#ffffff;stop-opacity:0.11895833;"
         offset="1"
         id="stop6" /></linearGradient><linearGradient
       id="linearGradient2"
       inkscape:collect="always"><stop
         style="stop-color:#ffffff;stop-opacity:1;"
         offset="0.33255708"
         id="stop2" /><stop
         style="stop-color:#1c1c1c;stop-opacity:1;"
         offset="0.59473729"
         id="stop3" /></linearGradient><linearGradient
       inkscape:collect="always"
       xlink:href="#linearGradient2"
       id="linearGradient3"
       x1="38.034115"
       y1="5.5747461"
       x2="31.410625"
       y2="15.394473"
       gradientUnits="userSpaceOnUse" /><linearGradient
       inkscape:collect="always"
       xlink:href="#linearGradient5"
       id="linearGradient6"
       x1="16.219128"
       y1="43.258354"
       x2="31.780884"
       y2="4.7416534"
       gradientUnits="userSpaceOnUse" /><linearGradient
       inkscape:collect="always"
       xlink:href="#linearGradient355"
       id="linearGradient353"
       x1="43.037716"
       y1="20.522581"
       x2="40.919674"
       y2="21.170134"
       gradientUnits="userSpaceOnUse" /><linearGradient
       inkscape:collect="always"
       xlink:href="#linearGradient358"
       id="linearGradient357"
       x1="4.9155512"
       y1="32.799995"
       x2="14.021149"
       y2="28.160461"
       gradientUnits="userSpaceOnUse" /><filter
       inkscape:collect="always"
       style="color-interpolation-filters:sRGB"
       id="filter361"
       x="-0.094985131"
       y="-0.094985131"
       width="1.1899703"
       height="1.1899703"><feGaussianBlur
         inkscape:collect="always"
         stdDeviation="1.5776393"
         id="feGaussianBlur361" /></filter><filter
       inkscape:collect="always"
       style="color-interpolation-filters:sRGB"
       id="filter363"
       x="-0.094985131"
       y="-0.094985131"
       width="1.1899703"
       height="1.1899703"><feGaussianBlur
         inkscape:collect="always"
         stdDeviation="1.5776393"
         id="feGaussianBlur363" /></filter><filter
       inkscape:collect="always"
       style="color-interpolation-filters:sRGB"
       id="filter364"
       x="-2.0560243"
       y="-0.45345828"
       width="5.1120487"
       height="1.9069166"><feGaussianBlur
         inkscape:collect="always"
         stdDeviation="1.5776393"
         id="feGaussianBlur364" /></filter><filter
       inkscape:collect="always"
       style="color-interpolation-filters:sRGB"
       id="filter366"
       x="-0.31966395"
       y="-0.38820755"
       width="1.6393279"
       height="1.7764151"><feGaussianBlur
         inkscape:collect="always"
         stdDeviation="1.5776393"
         id="feGaussianBlur366" /></filter><filter
       inkscape:collect="always"
       style="color-interpolation-filters:sRGB"
       id="filter367"
       x="-0.37050261"
       y="-0.19999905"
       width="1.7410052"
       height="1.3999981"><feGaussianBlur
         inkscape:collect="always"
         stdDeviation="1.5776393"
         id="feGaussianBlur367" /></filter><filter
       inkscape:collect="always"
       style="color-interpolation-filters:sRGB"
       id="filter361-2"
       x="-0.015234138"
       y="-0.015234138"
       width="1.0304683"
       height="1.0304683"><feGaussianBlur
         inkscape:collect="always"
         stdDeviation="0.20055283"
         id="feGaussianBlur361-6" /></filter><filter
       inkscape:collect="always"
       style="color-interpolation-filters:sRGB"
       id="filter366-7"
       x="-0.033564922"
       y="-0.040762044"
       width="1.0671298"
       height="1.0815241"><feGaussianBlur
         inkscape:collect="always"
         stdDeviation="0.16565316"
         id="feGaussianBlur366-9" /></filter><filter
       inkscape:collect="always"
       style="color-interpolation-filters:sRGB"
       id="filter364-7"
       x="-0.26136614"
       y="-0.057644568"
       width="1.5227323"
       height="1.1152891"><feGaussianBlur
         inkscape:collect="always"
         stdDeviation="0.20055283"
         id="feGaussianBlur364-5" /></filter><filter
       inkscape:collect="always"
       style="color-interpolation-filters:sRGB"
       id="filter367-2"
       x="-0.053923955"
       y="-0.029108405"
       width="1.1078479"
       height="1.0582168"><feGaussianBlur
         inkscape:collect="always"
         stdDeviation="0.22961392"
         id="feGaussianBlur367-8" /></filter><linearGradient
       inkscape:collect="always"
       xlink:href="#linearGradient5"
       id="linearGradient367"
       gradientUnits="userSpaceOnUse"
       x1="16.219128"
       y1="43.258354"
       x2="31.780884"
       y2="4.7416534"
       gradientTransform="translate(5.3521196,-6.6478804)" /><linearGradient
       inkscape:collect="always"
       xlink:href="#linearGradient2"
       id="linearGradient368"
       gradientUnits="userSpaceOnUse"
       x1="38.034115"
       y1="5.5747461"
       x2="31.410625"
       y2="15.394473"
       gradientTransform="translate(5.3521196,-6.6478804)" /><linearGradient
       inkscape:collect="always"
       xlink:href="#linearGradient355"
       id="linearGradient370"
       gradientUnits="userSpaceOnUse"
       x1="43.037716"
       y1="20.522581"
       x2="40.919674"
       y2="21.170134"
       gradientTransform="translate(5.3521196,-6.6478804)" /><linearGradient
       inkscape:collect="always"
       xlink:href="#linearGradient358"
       id="linearGradient371"
       gradientUnits="userSpaceOnUse"
       x1="4.9155512"
       y1="32.799995"
       x2="14.021149"
       y2="28.160461"
       gradientTransform="translate(5.3521196,-6.6478804)" /><inkscape:perspective
       sodipodi:type="inkscape:persp3d"
       inkscape:vp_x="0 : 24 : 1"
       inkscape:vp_y="0 : 1000 : 0"
       inkscape:vp_z="48 : 24 : 1"
       inkscape:persp3d-origin="24 : 16 : 1"
       id="perspective8" /><inkscape:path-effect
       effect="perspective-envelope"
       up_left_point="5.57,7.4138612"
       up_right_point="19.77247,7.4138612"
       down_left_point="4.4651541,38.304951"
       down_right_point="19.77247,38.304951"
       id="path-effect2"
       is_visible="true"
       lpeversion="1"
       deform_type="perspective"
       horizontal_mirror="false"
       vertical_mirror="false"
       overflow_perspective="false" /><linearGradient
       inkscape:collect="always"
       xlink:href="#linearGradient5"
       id="linearGradient10"
       gradientUnits="userSpaceOnUse"
       x1="16.219128"
       y1="43.258354"
       x2="31.780884"
       y2="4.7416534" /><linearGradient
       inkscape:collect="always"
       xlink:href="#linearGradient5"
       id="linearGradient11"
       gradientUnits="userSpaceOnUse"
       gradientTransform="translate(5.3521196,-6.6478804)"
       x1="16.219128"
       y1="43.258354"
       x2="31.780884"
       y2="4.7416534" /></defs><g
     inkscape:label="Layer 1"
     id="layer1-8"><g
       id="g372"
       transform="matrix(1.1090316,0,0,1.1090316,-2.6167584,-2.6167584)"><circle
         style="fill:#00007e;fill-opacity:0;stroke:url(#linearGradient10);stroke-width:0.3;stroke-dasharray:none;stroke-dashoffset:7.42;stroke-opacity:1;filter:url(#filter361)"
         id="path1-6"
         r="20.720793"
         cy="24"
         cx="24" /><path
         style="fill:url(#linearGradient3);fill-opacity:1;stroke:none;stroke-width:0.1;stroke-dasharray:none;stroke-opacity:1;filter:url(#filter366)"
         d="m 28.8,5.6079208 c 0,0 6.938614,1.2356436 11.120792,7.9841582 C 44.10297,20.340594 28.8,5.6079208 28.8,5.6079208 Z"
         id="path2" /><circle
         style="fill:#00007e;fill-opacity:0;stroke:url(#linearGradient6);stroke-width:0.3;stroke-dasharray:none;stroke-dashoffset:7.42;stroke-opacity:1;filter:url(#filter363)"
         id="circle349"
         r="20.720793"
         cy="24"
         cx="24" /><path
         style="fill:url(#linearGradient353);stroke:none;stroke-width:0.3;stroke-dasharray:none;stroke-dashoffset:7.42;stroke-opacity:0.174673;filter:url(#filter364)"
         d="m 40.871287,16.443564 c 0,0 2.454884,3.917238 1.695983,8.261153 -0.174346,0.997949 -1.482122,-6.716598 -1.695983,-8.261153 z"
         id="path351"
         sodipodi:nodetypes="csc" /><path
         style="fill:url(#linearGradient357);stroke:none;stroke-width:0.3;stroke-dasharray:none;stroke-dashoffset:7.42;stroke-opacity:0.174673;filter:url(#filter367)"
         d="m 6.1782178,32.221782 c 0,0 2.6613862,6.273268 6.7485152,7.508911 4.087128,1.235644 -0.570297,-4.752475 -1.615842,-7.033663 C 10.265347,30.415842 9.3919735,25.755914 7.8891089,23.952476 6.4633663,22.241584 4.4673267,19.10495 4.3722772,22.431683 c -0.09505,3.326733 0.2851485,7.128713 1.8059406,9.790099 z"
         id="path355"
         sodipodi:nodetypes="cssssc" /></g><g
       id="g371"
       transform="matrix(1.1090316,0,0,1.1090316,-8.5524296,4.7559496)"><circle
         style="fill:#00007e;fill-opacity:0;stroke:url(#linearGradient11);stroke-width:0.3;stroke-dasharray:none;stroke-dashoffset:7.42;stroke-opacity:1;filter:url(#filter361-2)"
         id="path1-3"
         r="20.720793"
         cy="17.352119"
         cx="29.352119" /><path
         style="fill:url(#linearGradient368);fill-opacity:1;stroke:none;stroke-width:0.1;stroke-dasharray:none;stroke-opacity:1;filter:url(#filter366-7)"
         d="m 34.15212,-1.0399596 c 0,0 6.938614,1.2356436 11.120792,7.9841582 C 49.45509,13.692714 34.15212,-1.0399596 34.15212,-1.0399596 Z"
         id="path2-6" /><circle
         style="fill:#00007e;fill-opacity:0;stroke:url(#linearGradient367);stroke-width:0.3;stroke-dasharray:none;stroke-dashoffset:7.42;stroke-opacity:1"
         id="circle349-1"
         r="20.720793"
         cy="17.352119"
         cx="29.352119" /><path
         style="fill:url(#linearGradient370);stroke:none;stroke-width:0.3;stroke-dasharray:none;stroke-dashoffset:7.42;stroke-opacity:0.174673;filter:url(#filter364-7)"
         d="m 46.223407,9.7956836 c 0,0 2.454884,3.9172384 1.695983,8.2611534 -0.174346,0.997949 -1.482122,-6.716598 -1.695983,-8.2611534 z"
         id="path351-2"
         sodipodi:nodetypes="csc" /><path
         style="fill:url(#linearGradient371);stroke:none;stroke-width:0.3;stroke-dasharray:none;stroke-dashoffset:7.42;stroke-opacity:0.174673;filter:url(#filter367-2)"
         d="m 11.530337,25.573902 c 0,0 2.661387,6.273268 6.748516,7.508911 4.087128,1.235644 -0.570297,-4.752475 -1.615842,-7.033663 -1.045544,-2.281188 -1.918918,-6.941116 -3.421782,-8.744554 -1.425743,-1.710892 -3.4217827,-4.847526 -3.5168322,-1.520793 -0.09505,3.326733 0.2851482,7.128713 1.8059402,9.790099 z"
         id="path355-9"
         sodipodi:nodetypes="cssssc" /></g></g><g
     inkscape:label="Layer 1"
     inkscape:groupmode="layer"
     id="layer1" /><path
     id="path1"
     style="fill:url(#linearGradient8);stroke:#000000;stroke-width:0.223;stroke-linejoin:round;stroke-miterlimit:30.6;stroke-dashoffset:0;stroke-opacity:1;stroke-dasharray:0.223,0.66900001;stroke-linecap:round"
     d="m 21.015608,11.039004 c -7.940571,0.138699 -7.454292,0.103067 -7.766366,0.623188 -0.312075,0.520125 -0.12668,0.915373 -0.12668,0.915373 0,0 -0.271811,0.194033 -0.306487,0.445427 -0.03467,0.251394 0.371871,0.394345 0.371871,0.394345 l -0.0613,1.936995 c 0,0 -0.544553,0.164931 -0.561892,0.424994 -0.01733,0.260063 -1.35e-4,0.442017 0.216584,0.537373 0.216719,0.09536 0.319797,0.112739 0.337135,0.320789 0.01733,0.20805 0.02577,0.685464 -0.13894,0.954195 -0.164707,0.26873 -0.207901,0.848862 -0.502638,1.082918 -0.294738,0.234056 -0.5292,1.916561 -0.5292,1.916561 L 12.12137,34.91225 c 0,0 0.234404,1.872453 0.494466,2.357902 0.260062,0.48545 0.779813,1.975366 1.256593,2.304778 0.476782,0.329413 1.161409,1.093615 4.004757,1.371014 2.843348,0.277402 6.328494,0.08539 7.247381,-0.157328 0.918887,-0.242725 2.896538,-0.224008 3.624713,-1.558994 0.728175,-1.334988 1.438442,-3.641058 1.438442,-3.641058 0,0 0.623039,-0.520848 1.125827,-0.416823 0.502788,0.104029 2.705584,-0.172594 3.485772,-0.727393 0.780187,-0.5548 1.993694,-2.098773 2.288431,-3.485772 0.294737,-1.387 0.571746,-4.681161 0.363698,-5.322647 -0.208051,-0.641487 -0.155078,-3.589438 -0.62319,-4.456313 -0.468112,-0.866874 -0.780823,-2.14847 -3.312096,-2.737944 -2.531273,-0.589476 -2.610944,0.978661 -4.10896,-0.98893 -0.467689,-0.614292 0.450625,-0.380435 0.502637,-1.195297 0.05201,-0.814862 -0.588454,-1.005275 -0.588454,-1.005275 l -0.122595,-1.178952 c 0,0 0.573041,-0.192665 0.521027,-0.539415 -0.05201,-0.346749 -0.502637,-0.588455 -0.502637,-0.588454 l 0.05108,-1.283157 v -0.002 c -0.02582,-0.04461 -0.560229,-0.755512 -8.252655,-0.621145 z m 10.833272,9.854559 c 0.316329,-0.0093 0.817108,0.0093 0.894941,0.02043 0.06672,0.0095 0.130767,0.03269 0.196151,0.04903 0.360446,0.180224 0.56525,0.31268 0.88268,0.539417 0.158946,0.113532 0.387784,0.03999 0.490378,0.245188 0.07068,0.141356 0.416822,0.525125 0.416822,0.735568 10e-7,0.149184 0.155878,0.381985 0.0613,0.502638 -0.08101,0.103347 -0.05361,0.262239 -0.03678,0.380043 0.02289,0.16019 0.07518,0.330188 0.09808,0.490378 0.03506,0.245399 -0.0014,0.381056 0.06129,0.600713 0.138946,0.05721 0.0014,0.424995 0.01226,0.490379 0.05758,0.345472 -0.166281,0.32473 -0.122594,0.674269 0.02722,0.217813 0.01267,0.419222 0.04904,0.637492 0.0066,0.03959 -0.0083,0.213747 0,0.243146 v 0.002 c 5.96e-4,9.05e-4 0.0034,0.0053 0.0041,0.0061 l 0.002,0.002 0.002,0.002 c 0.02125,0.01523 0.06334,0.01349 0.08377,0.03065 7.54e-4,7.54e-4 0.0034,0.0053 0.0041,0.0061 l 0.002,0.002 c 0.03627,0.0544 -0.01797,0.133278 0,0.196151 0.02091,0.07317 0.126829,0.290879 0.147113,0.392302 0.03535,0.176756 0.103835,1.098092 0.04904,1.225946 -0.118241,0.275897 -0.341449,0.430421 -0.392302,0.735567 -0.02116,0.126895 -0.04456,0.744512 0,0.833643 0.02635,0.05271 0.07944,0.0912 0.09808,0.147114 0.0074,0.02209 0.02545,0.2859 0.002,0.339179 v 0.002 l -0.002,0.002 c -0.02564,0.03847 -0.08091,0.05515 -0.09808,0.09808 -0.01821,0.04553 0.0081,0.09874 0,0.147113 -0.05061,0.303674 -0.191036,0.185909 -0.294228,0.392303 -0.01122,0.028 0.01326,0.06803 0.002,0.09603 l -0.002,0.002 v 0.002 h -0.002 v 0.002 h -0.002 -0.002 -0.002 c -0.0071,-3.82e-4 -0.01818,-0.0042 -0.02656,-0.0061 -0.0011,-1.49e-4 -0.0051,-10e-6 -0.0061,0 h -0.002 -0.002 -0.002 v 0.002 h -0.002 l -0.002,0.002 c -0.03255,0.05716 -0.03174,0.451644 -0.09603,0.537373 -0.105746,0.140994 -0.201389,0.236857 -0.343265,0.343264 -0.07643,0.0573 -0.254698,0.01362 -0.343265,0.04904 -0.133087,0.05324 -0.224293,0.185706 -0.343264,0.24519 -0.02924,0.01463 -0.06705,-0.01036 -0.09808,0 -0.06935,0.02311 -0.128278,0.07093 -0.196151,0.09808 -0.05854,0.02341 -0.307769,0.02538 -0.343265,0.04904 h -0.002 v 0.002 h -0.002 v 0.002 l -0.002,0.002 c -2.92e-4,8.29e-4 -0.0019,0.0052 -0.002,0.0061 v 0.002 c 3.89e-4,0.0186 0.01596,0.04883 0.01635,0.06742 v 0.002 c -1.77e-4,9.05e-4 -0.0017,0.0053 -0.002,0.0061 v 0.002 l -0.002,0.002 v 0.002 h -0.002 v 0.002 h -0.002 c -0.0408,0.0272 -0.09808,0 -0.147113,0 -0.01328,0 -0.02826,-0.0065 -0.04086,-0.0041 -9.8e-4,2.85e-4 -0.0052,0.0017 -0.0061,0.002 l -0.002,0.002 c -0.08975,0.05385 -0.145889,0.163051 -0.245188,0.196151 -0.02714,0.0091 -0.06158,-0.01093 -0.08786,-0.0041 h -0.002 c -9.04e-4,3.94e-4 -0.0053,0.0016 -0.0061,0.002 l -0.002,0.002 c -8.29e-4,7.12e-4 -0.0054,0.0033 -0.0061,0.0041 -0.01715,0.02043 -0.01542,0.06252 -0.03065,0.08377 l -0.002,0.002 -0.002,0.002 c -8.29e-4,6.75e-4 -0.0052,0.0035 -0.0061,0.0041 l -0.002,0.002 c -0.09958,0.0498 -0.378373,0 -0.490378,0 -0.361141,0 -0.215108,0.03279 -0.539416,-0.245189 -0.08325,-0.07136 -0.239985,-0.08767 -0.294227,-0.196151 -0.03161,-0.06325 -0.02028,-0.187662 -0.04904,-0.245189 -0.02067,-0.04135 -0.08091,-0.05515 -0.09808,-0.09808 -0.05327,-0.133178 0.01069,-0.530524 0,-0.637492 -0.0051,-0.05143 -0.04266,-0.09582 -0.04904,-0.147113 -0.01015,-0.0811 0.01982,-0.165902 0,-0.245189 -0.0374,-0.149603 -0.191041,-0.247913 -0.24519,-0.392303 -0.01722,-0.04592 0.0069,-0.09857 0,-0.147113 -0.04199,-0.293946 -0.249771,-0.623744 -0.147113,-0.931719 0.01863,-0.05591 0.07944,-0.0912 0.09808,-0.147113 0.0155,-0.04653 -0.0069,-0.09857 0,-0.147114 0.02961,-0.207232 0.05925,-0.26561 0.147114,-0.44134 0.06071,-0.121416 -0.03087,-1.15693 0,-1.373059 0.01852,-0.129658 0.112674,-0.190921 0.147113,-0.294227 0.04265,-0.127989 0.01591,-0.308812 0.04904,-0.441341 0.06605,-0.264212 0.137044,-0.364692 0.09808,-0.637491 -0.01352,-0.09464 -0.241972,-0.960122 -0.294227,-1.029795 l -0.002,-0.002 c -0.01976,-0.01824 -0.06144,-0.01868 -0.08377,-0.03269 l -0.002,-0.002 -0.002,-0.002 -0.002,-0.002 c -6.71e-4,-8.29e-4 -0.0035,-0.0052 -0.0041,-0.0061 l -0.002,-0.002 c -0.02192,-0.04386 0.0155,-0.100592 0,-0.147114 v -0.002 h -0.002 v -0.002 l -0.002,-0.002 h -0.002 l -0.002,-0.002 c -9.04e-4,-2.16e-4 -0.0031,1.05e-4 -0.0041,0 -0.03285,-2.4e-5 -0.112095,0.04733 -0.14507,0.04291 h -0.002 -0.002 l -0.002,-0.002 h -0.002 l -0.002,-0.002 -0.002,-0.002 v -0.002 l -0.002,-0.002 v -0.002 c -0.0029,-0.02234 0.0158,-0.07413 0.07355,-0.169589 -0.05746,-0.229844 0.07851,-1.0101 0,-1.12787 v -0.002 h -0.002 v -0.002 h -0.002 l -0.002,-0.002 c -9.04e-4,-2.79e-4 -0.0052,-0.0019 -0.0061,-0.002 -9.8e-4,-5.7e-5 -0.0051,-4.1e-5 -0.0061,0 -0.01781,0.002 -0.04437,0.01484 -0.06129,0.01635 -9.8e-4,5e-6 -0.0052,9.6e-5 -0.0061,0 h -0.002 -0.002 l -0.002,-0.002 h -0.002 v -0.002 h -0.002 v -0.002 h -0.002 v -0.002 c -0.02924,-0.05848 0.01282,-0.132033 0,-0.196151 v -0.002 l -0.002,-0.002 v -0.002 l -0.002,-0.002 c -0.0096,-0.01056 -0.02925,-0.02009 -0.03882,-0.03065 l -0.002,-0.002 -0.002,-0.002 v -0.002 l -0.002,-0.002 v -0.002 c -0.04099,-0.204908 0.01611,-0.439937 0.04904,-0.637492 0.0032,-0.0195 -0.01691,-0.161166 -0.002,-0.194108 h 0.002 v -0.002 c 0.02565,-0.03847 0.05961,-0.07242 0.09807,-0.09808 h 0.002 v -0.002 h 0.002 0.002 0.002 c 0.0078,3.07e-4 0.01871,0.0043 0.02656,0.0061 0.0011,1.5e-4 0.0051,-6e-6 0.0061,0 h 0.002 0.002 0.002 v -0.002 h 0.002 v -0.002 c 0.01461,-0.02924 -0.01215,-0.06772 0,-0.09807 0.02189,-0.05472 0.07171,-0.0944 0.09808,-0.147113 0.03014,-0.06028 0.0189,-0.135873 0.04904,-0.196152 0.03296,-0.06591 0.193384,-0.29146 0.245189,-0.343264 h 0.002 v -0.002 h 0.002 l 0.002,-0.002 h 0.002 c 0.0011,5.7e-5 0.0051,-1.73e-4 0.0061,0 0.0078,0.0018 0.01935,0.0063 0.02656,0.0061 h 0.002 0.002 0.002 v -0.002 h 0.002 c 0.05548,-0.04161 0.09164,-0.105509 0.147113,-0.147114 0.06466,-0.0485 0.229659,-0.09545 0.294227,-0.147113 l 0.002,-0.002 c 0.01944,-0.02174 0.01885,-0.06584 0.03678,-0.08786 l 0.002,-0.002 c 8.29e-4,-7.26e-4 0.0052,-0.0034 0.0061,-0.0041 l 0.002,-0.002 c 0.07147,-0.04286 0.18625,0.0099 0.24519,-0.04903 0.05968,-0.05968 0.06487,-0.26141 0.196151,-0.294228 0.04167,-0.01042 0.127487,-0.01732 0.232929,-0.02043 z" /><text
     xml:space="preserve"
     style="font-size:12.2821px;text-align:start;writing-mode:lr-tb;direction:ltr;text-anchor:start;fill:#3c00d6;fill-opacity:1;stroke:none;stroke-width:0.511752;stroke-linejoin:round;stroke-miterlimit:30.6;stroke-dashoffset:7.42"
     x="11.654867"
     y="22.556381"
     id="text8"><tspan
       sodipodi:role="line"
       id="tspan8"
       x="11.654867"
       y="22.556381"
       style="font-style:italic;font-variant:normal;font-weight:bold;font-stretch:normal;font-family:Arial;-inkscape-font-specification:'Arial Bold Italic';fill:#3c00d6;fill-opacity:1;stroke-width:0.511752">Run</tspan></text><text
     xml:space="preserve"
     style="font-style:italic;font-variant:normal;font-weight:bold;font-stretch:normal;font-size:7.92706px;font-family:Arial;-inkscape-font-specification:'Arial Bold Italic';text-align:start;writing-mode:lr-tb;direction:ltr;text-anchor:start;fill:#3c00d6;fill-opacity:1;stroke:none;stroke-width:0.330294;stroke-linejoin:round;stroke-miterlimit:30.6;stroke-dashoffset:7.42"
     x="13.242342"
     y="25.327902"
     id="text9"><tspan
       sodipodi:role="line"
       id="tspan9"
       x="13.242342"
       y="25.327902"
       style="stroke-width:0.330294">a</tspan></text><text
     xml:space="preserve"
     style="font-style:italic;font-variant:normal;font-weight:bold;font-stretch:normal;font-family:Arial;-inkscape-font-specification:'Arial Bold Italic';text-align:start;writing-mode:lr-tb;direction:ltr;text-anchor:start;fill:#ff0000;fill-opacity:1;stroke:none;stroke-width:0.5;stroke-linejoin:round;stroke-miterlimit:30.6;stroke-dashoffset:7.42"
     x="14.849242"
     y="31.422058"
     id="text10"><tspan
       sodipodi:role="line"
       id="tspan10"
       x="14.849242"
       y="31.422058">Jar</tspan></text></svg>
